<svg id="Icons" enable-background="new 0 0 512 512" height="512" viewBox="0 0 512 512" width="512" xmlns="http://www.w3.org/2000/svg"><g><g><circle cx="256" cy="256" fill="#57409b" r="256"/><path d="m475.79 168.79c0 121.39-98.4 219.8-219.79 219.8s-219.79-98.41-219.79-219.8c0-19.03 2.42-37.5 6.97-55.11 45.93-68.55 124.11-113.68 212.82-113.68s166.89 45.13 212.82 113.68c4.55 17.61 6.97 36.08 6.97 55.11z" fill="#6c53a2"/></g><g><g><g><g><path d="m270.307 38.032h-31.751c-18.305 0-34.46 9.219-44.066 23.268-5.856 8.563-9.283 18.92-9.283 30.076v29.552c0 29.461 23.883 53.344 53.348 53.344h31.751v-136.24z" fill="#f39e22"/><g><path d="m185.207 98.894h56.249v14.515h-56.249z" fill="#ea792e"/><path d="m185.207 98.894h56.249v5.697h-56.249z" fill="#dd5e26"/></g><g><path d="m241.456 122.522v14.51h-53.77c-.905-2.842-1.569-5.787-1.979-8.817-.259-1.866-.419-3.765-.471-5.693z" fill="#ea792e"/><path d="m241.456 122.522v5.693h-55.749c-.259-1.866-.419-3.765-.471-5.693z" fill="#dd5e26"/></g><g><path d="m255.127 146.146v14.515h-52.163c-2.945-2.634-5.594-5.594-7.889-8.822-1.296-1.814-2.479-3.718-3.539-5.693z" fill="#ea792e"/><path d="m255.127 146.146v5.693h-60.052c-1.296-1.814-2.479-3.718-3.539-5.693z" fill="#dd5e26"/></g><g><path d="m264.241 169.775v4.496h-25.683c-7.639 0-14.896-1.602-21.466-4.496z" fill="#ea792e"/><path d="m264.241 169.775v4.496h-25.683c-7.639 0-14.896-1.602-21.466-4.496z" fill="#dd5e26"/></g><g><path d="m241.456 75.27v14.51h-56.225c.09-3.011.424-5.952.994-8.817.122-.622.254-1.239.405-1.857l1.056-3.836z" fill="#ea792e"/><path d="m241.456 75.27v5.693h-55.231c.122-.622.254-1.239.405-1.857l1.056-3.836z" fill="#dd5e26"/></g><g><path d="m255.641 51.641v14.515h-64.109c.9-1.678 1.89-3.299 2.959-4.859.938-1.367 1.937-2.691 2.992-3.963 1.682-2.031 3.516-3.935 5.481-5.693z" fill="#ea792e"/><path d="m255.641 51.641v5.693h-58.157c1.682-2.031 3.516-3.935 5.481-5.693z" fill="#dd5e26"/></g><g><path d="m266.611 40.218v2.309h-49.519c6.565-2.893 13.827-4.496 21.466-4.496h12.898c5.264.001 10.353.764 15.155 2.187z" fill="#ea792e"/></g></g><path d="m326.793 91.375v29.552c0 4.493-.556 8.854-1.604 13.024-5.81 23.163-26.772 40.32-51.744 40.32h-12.901c-29.465 0-53.348-23.883-53.348-53.344v-29.552c0-11.155 3.427-21.513 9.283-30.076 9.606-14.049 25.76-23.268 44.066-23.268h12.901c29.464.001 53.347 23.884 53.347 53.344z" fill="#f9c744"/><path d="m326.793 91.375v29.552c0 4.493-.556 8.854-1.604 13.024-7.874 2.689-16.232 4.133-24.89 4.133-41.377 0-75.891-32.974-83.82-76.785 9.606-14.049 25.76-23.268 44.066-23.268h12.901c29.464.001 53.347 23.884 53.347 53.344z" fill="#fad98f"/><path d="m288.461 63.903c-3.205 2.023-4.164 6.262-2.14 9.468l12.041 19.075c2.023 3.205 6.262 4.164 9.468 2.14 3.205-2.023 4.164-6.262 2.14-9.468l-12.041-19.075c-2.024-3.205-6.263-4.163-9.468-2.14z" fill="#faefdc"/><g><path d="m272.88 43.992h-11.772c-16.704 0-31.445 8.412-40.21 21.232-5.343 7.813-8.47 17.265-8.47 27.444v26.966c0 26.883 21.793 48.676 48.681 48.676h11.772c22.787 0 41.915-15.656 47.217-36.792.956-3.805 1.464-7.784 1.464-11.884v-26.966c-.001-26.883-21.795-48.676-48.682-48.676zm46.639 75.138c0 3.947-.488 7.777-1.409 11.44-5.103 20.346-23.516 35.416-45.45 35.416h-11.332c-25.881 0-46.859-20.978-46.859-46.855v-25.959c0-9.799 3.01-18.897 8.153-26.418 8.438-12.34 22.627-20.438 38.706-20.438h11.332c25.881 0 46.859 20.978 46.859 46.855z" fill="#dd5e26"/><path d="m272.66 46.317h-11.332c-16.079 0-30.268 8.097-38.706 20.438-5.143 7.521-8.153 16.619-8.153 26.418v25.957c0 25.877 20.978 46.855 46.859 46.855h11.332c21.935 0 40.347-15.07 45.45-35.416.921-3.662 1.409-7.493 1.409-11.44v-25.957c0-25.877-20.978-46.855-46.859-46.855zm42.007 71.614c0 3.582-.443 7.059-1.279 10.383-4.632 18.466-21.343 32.144-41.252 32.144h-10.285c-23.491 0-42.531-19.04-42.531-42.527v-23.56c0-8.893 2.732-17.151 7.4-23.977 7.658-11.2 20.537-18.55 35.13-18.55h10.285c23.491 0 42.531 19.04 42.531 42.527v23.56z" fill="#ea792e"/></g></g><g><path d="m285.997 103.204h-.625l2.915-4.305h-.004c1.285-1.745 2.045-3.901 2.045-6.236v-4.718c0-5.823-4.719-10.542-10.542-10.542h-1.294v-12.422c0-2.025-1.642-3.671-3.671-3.671h-3.768c-2.029 0-3.671 1.646-3.671 3.671v12.421h-6.082v-12.421c0-2.025-1.642-3.671-3.671-3.671h-3.768c-2.029 0-3.671 1.646-3.671 3.671v12.421h-14.389c-2.029 0-3.671 1.642-3.671 3.671v3.768c0 2.029 1.642 3.671 3.671 3.671h8.099v35.278h-8.099c-2.029 0-3.671 1.642-3.671 3.671v3.768c0 2.029 1.642 3.671 3.671 3.671h14.389v12.421c0 2.025 1.642 3.671 3.671 3.671h3.768c.185 0 .365-.013.541-.04 1.774-.264 3.13-1.791 3.13-3.631v-12.421h6.083v12.421c0 2.025 1.642 3.671 3.671 3.671h3.768c.185 0 .365-.013.541-.04 1.774-.264 3.129-1.791 3.129-3.631v-12.421h7.505c3.442 0 6.576-1.342 8.896-3.548 2.496-2.35 4.054-5.696 4.054-9.402v-5.797c-.001-7.152-5.802-12.949-12.95-12.949zm-24.697-14.692h13.557c2.456 0 4.45 1.994 4.45 4.454v.735c0 2.003-1.32 3.688-3.13 4.252-.418.128-.863.198-1.32.198h-13.557zm24.331 29.261c0 2.293-1.281 4.287-3.169 5.304-.849.453-1.818.713-2.848.713h-18.314v-13.029h18.315c3.323 0 6.017 2.694 6.017 6.017v.995z" fill="#dd5e26"/><path d="m282.863 107.817h-6.206c3.622 0 6.818-1.827 8.715-4.613.533-.775.96-1.624 1.263-2.531.365-1.065.563-2.21.563-3.398v-4.718c0-5.823-4.718-10.542-10.542-10.542h-1.294v-12.421c0-2.025-1.642-3.671-3.671-3.671h-3.772c-.18 0-.361.013-.537.04v16.052h-9.212v-12.421c0-2.025-1.646-3.671-3.671-3.671h-3.772c-.18 0-.361.013-.537.04v16.052h-17.523c-.18 0-.361.013-.537.04v2.786c0 2.029 1.642 3.671 3.671 3.671h8.099v39.891h-11.233c-.18 0-.361.013-.537.04v2.786c0 2.029 1.642 3.671 3.671 3.671h14.389v12.421c0 2.025 1.642 3.671 3.671 3.671h3.768c.185 0 .365-.013.541-.04v-16.052h9.212v12.421c0 2.025 1.642 3.671 3.671 3.671h3.768c.185 0 .365-.013.541-.04v-16.052h10.634c3.442 0 6.576-1.342 8.896-3.548.594-1.483.92-3.099.92-4.789v-5.797c0-7.152-5.797-12.949-12.949-12.949zm-24.693-19.305h16.686c2.456 0 4.45 1.994 4.45 4.454v.735c0 8.711-4.199 9.063-7.584 9.063h-13.552zm27.461 29.261c0 8.579-2.086 10.63-9.146 10.63h-18.315v-17.641h21.444c3.323 0 6.017 2.694 6.017 6.017z" fill="#ea792e"/></g></g><g><g><g><path d="m114.011 102.919-23.037 13.3c-13.281 7.668-21.14 21.123-22.225 35.34-.662 8.665 1.191 17.616 5.863 25.71l12.379 21.441c12.341 21.375 39.673 28.699 61.051 16.356l23.037-13.3z" fill="#f39e22"/><g><path d="m77.645 170.129h47.124v12.16h-47.124z" fill="#ea792e" transform="matrix(.866 -.5 .5 .866 -74.545 74.21)"/><path d="m75.798 170.624h47.124v4.773h-47.124z" fill="#dd5e26" transform="matrix(.866 -.5 .5 .866 -73.193 72.858)"/></g><g><path d="m128.47 176.307 6.078 10.528-39.012 22.523c-1.847-1.683-3.563-3.541-5.129-5.568-.97-1.245-1.882-2.556-2.727-3.933z" fill="#ea792e"/><path d="m128.47 176.307 2.385 4.13-40.448 23.352c-.97-1.245-1.882-2.556-2.727-3.933z" fill="#dd5e26"/></g><g><path d="m148.285 187.72 6.08 10.531-37.846 21.85c-3.24-.678-6.402-1.715-9.419-3.096-1.7-.774-3.356-1.659-4.952-2.648z" fill="#ea792e"/><path d="m148.285 187.72 2.385 4.13-43.57 25.155c-1.7-.774-3.356-1.659-4.952-2.648z" fill="#dd5e26"/></g><g><path d="m164.795 201.046 1.883 3.262-18.634 10.758c-5.542 3.2-11.479 5.077-17.457 5.73z" fill="#ea792e"/><path d="m164.795 201.046 1.883 3.262-18.634 10.758c-5.542 3.2-11.479 5.077-17.457 5.73z" fill="#dd5e26"/></g><g><path d="m108.677 142.023 6.078 10.528-40.794 23.552c-1.196-2.222-2.185-4.496-2.972-6.814-.172-.503-.335-1.006-.484-1.517l-.841-3.225z" fill="#ea792e"/><path d="m108.677 142.023 2.385 4.13-40.072 23.135c-.172-.503-.335-1.006-.484-1.517l-.841-3.225z" fill="#dd5e26"/></g><g><path d="m109.071 118.937 6.08 10.531-46.514 26.854c-.05-1.594-.011-3.185.112-4.765.108-1.384.278-2.764.511-4.129.37-2.178.902-4.328 1.592-6.426z" fill="#ea792e"/><path d="m109.071 118.937 2.385 4.13-42.196 24.362c.37-2.178.902-4.328 1.592-6.426z" fill="#dd5e26"/></g><g><path d="m112.245 106.054.967 1.675-35.928 20.743c3.551-4.849 8.149-9.054 13.691-12.253l9.358-5.403c3.82-2.205 7.832-3.783 11.912-4.762z" fill="#ea792e"/></g></g><path d="m177.339 117.961 12.379 21.441c1.882 3.26 3.305 6.657 4.292 10.121 5.487 19.24-2.535 40.468-20.653 50.929l-9.36 5.404c-21.378 12.343-48.711 5.019-61.051-16.356l-12.379-21.441c-4.673-8.094-6.525-17.044-5.863-25.71 1.085-14.217 8.944-27.672 22.225-35.34l9.36-5.404c21.377-12.342 48.709-5.019 61.05 16.356z" fill="#f9c744"/><path d="m177.339 117.961 12.379 21.441c1.882 3.26 3.305 6.657 4.292 10.121-4.587 5.249-10.046 9.798-16.327 13.425-30.021 17.332-68.875 7.866-92.979-20.599 1.085-14.217 8.944-27.672 22.225-35.34l9.36-5.404c21.377-12.342 48.709-5.019 61.05 16.356z" fill="#fad98f"/><path d="m138.019 114.086c-1.478 2.811-.398 6.288 2.413 7.766l16.727 8.796c2.811 1.478 6.288.398 7.766-2.413 1.478-2.811.398-6.288-2.413-7.766l-16.727-8.796c-2.811-1.478-6.288-.398-7.766 2.413z" fill="#faefdc"/><g><path d="m118.374 106.166-8.541 4.931c-12.119 6.997-19.291 19.275-20.281 32.248-.604 7.907 1.086 16.075 5.35 23.46l11.296 19.565c11.261 19.505 36.202 26.188 55.71 14.925l8.541-4.931c16.533-9.545 23.853-28.917 18.846-46.473-.9-3.161-2.199-6.261-3.916-9.236l-11.296-19.565c-11.26-19.504-36.201-26.187-55.709-14.924zm65.313 34.979c1.653 2.863 2.903 5.847 3.77 8.89 4.82 16.899-2.227 35.546-18.141 44.734l-8.222 4.747c-18.778 10.841-42.786 4.408-53.625-14.367l-10.873-18.833c-4.104-7.109-5.732-14.971-5.15-22.583.953-12.488 7.856-24.307 19.522-31.042l8.222-4.747c18.778-10.841 42.786-4.408 53.625 14.367z" fill="#dd5e26"/><path d="m119.189 107.945-8.222 4.747c-11.666 6.735-18.569 18.554-19.522 31.042-.581 7.611 1.046 15.473 5.15 22.583l10.873 18.833c10.84 18.775 34.847 25.208 53.625 14.367l8.222-4.747c15.915-9.188 22.961-27.835 18.141-44.734-.866-3.043-2.116-6.027-3.77-8.89l-10.873-18.833c-10.838-18.776-34.846-25.209-53.624-14.368zm60.476 34.363c1.5 2.599 2.635 5.307 3.421 8.069 4.375 15.338-2.021 32.262-16.465 40.602l-7.462 4.308c-17.043 9.84-38.834 4.001-48.672-13.04l-9.869-17.093c-3.725-6.453-5.202-13.588-4.675-20.496.865-11.334 7.13-22.061 17.718-28.174l7.462-4.308c17.043-9.84 38.834-4.001 48.672 13.04z" fill="#ea792e"/></g></g><g><path d="m158.526 147.366-.738 1.297-8.241 14.436c-1.227 2.154-3.518 3.476-5.997 3.462l-18.111-.093c-3.392-.016-6.123-2.788-6.091-6.176l.318-33.568.025-2.704c.026-2.522 2.747-4.093 4.944-2.854l31.584 17.839c2.95 1.666 3.985 5.417 2.307 8.361z" fill="#dd5e26"/><path d="m163.832 151.66-.346 3.933-.167 1.897-2.364 26.858c-.149 1.668-1.468 2.858-2.98 3.011-.564.057-1.155-.035-1.721-.296l-24.442-11.382-5.306-2.471c-1.035-.483-.677-2.034.465-2.014l19.369.337c2.537.044 4.893-1.316 6.124-3.535l9.393-16.943c.552-.998 2.074-.533 1.975.605z" fill="#dd5e26"/><g fill="#ea792e"><path d="m157.788 148.662-8.241 14.436c-1.227 2.154-3.518 3.476-5.997 3.462l-18.111-.093c-3.392-.016-6.123-2.788-6.091-6.176l.318-33.568c.987-.684 2.334-.837 3.524-.166l31.584 17.839c1.657.937 2.708 2.528 3.014 4.266z"/><path d="m155.028 172.443c-1.231 2.22-3.586 3.58-6.124 3.535l-17.094-.297 24.442 11.382c.566.261 1.157.353 1.721.296l1.735-19.708c.088-.995-1.246-1.403-1.73-.53z"/></g></g></g><g><g><g><path d="m418.751 114.906-23.036-13.3c-13.281-7.668-28.863-7.747-41.718-1.577-7.835 3.76-14.661 9.839-19.333 17.933l-12.379 21.441c-12.341 21.375-5.017 48.707 16.361 61.05l23.036 13.3z" fill="#f39e22"/><g><path d="m342.798 116.9h12.16v47.124h-12.16z" fill="#ea792e" transform="matrix(.5 -.866 .866 .5 52.793 372.366)"/><path d="m348.338 113.702h4.773v47.124h-4.773z" fill="#dd5e26" transform="matrix(.5 -.866 .866 .5 56.486 372.366)"/></g><g><path d="m362.425 164.122-6.078 10.527-39.012-22.524c.534-2.441 1.286-4.856 2.257-7.226.594-1.463 1.273-2.908 2.043-4.328z" fill="#ea792e"/><path d="m362.425 164.122-2.385 4.13-40.448-23.353c.594-1.463 1.273-2.908 2.043-4.328z" fill="#dd5e26"/></g><g><path d="m362.448 186.988-6.08 10.531-37.846-21.851c-1.033-3.145-1.715-6.402-2.028-9.705-.18-1.859-.241-3.736-.183-5.613z" fill="#ea792e"/><path d="m362.448 186.988-2.385 4.13-43.57-25.155c-.18-1.859-.241-3.736-.183-5.613z" fill="#dd5e26"/></g><g><path d="m359.163 207.95-1.883 3.262-18.634-10.759c-5.542-3.2-10.137-7.403-13.691-12.254z" fill="#ea792e"/><path d="m359.163 207.95-1.883 3.262-18.634-10.759c-5.542-3.2-10.137-7.403-13.691-12.254z" fill="#dd5e26"/></g><g><path d="m382.219 129.838-6.078 10.527-40.793-23.553c1.326-2.147 2.801-4.141 4.415-5.981.349-.4.704-.793 1.072-1.177l2.373-2.341z" fill="#ea792e"/><path d="m382.219 129.838-2.385 4.13-40.072-23.136c.349-.4.704-.793 1.072-1.177l2.373-2.341z" fill="#dd5e26"/></g><g><path d="m402.408 118.637-6.08 10.531-46.514-26.855c1.356-.84 2.753-1.602 4.182-2.285 1.253-.599 2.532-1.141 3.831-1.622 2.071-.769 4.199-1.382 6.361-1.834z" fill="#ea792e"/><path d="m402.408 118.637-2.385 4.13-42.195-24.362c2.071-.769 4.199-1.382 6.361-1.834z" fill="#dd5e26"/></g><g><path d="m415.153 114.944-.967 1.675-35.928-20.743c5.975.651 11.915 2.53 17.457 5.73l9.358 5.403c3.82 2.205 7.192 4.891 10.08 7.935z" fill="#ea792e"/></g></g><path d="m437.388 177.271-12.379 21.441c-1.882 3.26-4.112 6.191-6.619 8.777-13.918 14.372-36.314 18.039-54.432 7.578l-9.36-5.404c-21.378-12.343-28.702-39.675-16.361-61.05l12.379-21.441c4.673-8.094 11.498-14.173 19.333-17.933 12.855-6.169 28.437-6.091 41.718 1.577l9.36 5.404c21.378 12.343 28.702 39.676 16.361 61.051z" fill="#f9c744"/><path d="m437.388 177.271-12.379 21.441c-1.882 3.26-4.112 6.191-6.619 8.777-6.839-1.348-13.508-3.801-19.79-7.428-30.021-17.333-41.249-55.715-28.65-90.822 12.855-6.169 28.437-6.091 41.718 1.577l9.36 5.404c21.377 12.343 28.701 39.676 16.36 61.051z" fill="#fad98f"/><path d="m421.084 141.281c-3.173.125-5.644 2.799-5.519 5.973l.746 18.884c.125 3.173 2.799 5.644 5.973 5.519 3.173-.125 5.644-2.799 5.519-5.973l-.746-18.884c-.125-3.173-2.8-5.644-5.973-5.519z" fill="#faefdc"/><g><path d="m418.121 120.308-8.541-4.931c-12.119-6.997-26.338-7.069-38.068-1.439-7.15 3.431-13.378 8.978-17.642 16.364l-11.296 19.565c-11.261 19.505-4.578 44.446 14.929 55.709l8.541 4.931c16.533 9.545 36.969 6.199 49.67-6.915 2.288-2.36 4.323-5.035 6.04-8.009l11.296-19.565c11.261-19.506 4.579-44.447-14.929-55.71zm2.363 74.053c-1.653 2.863-3.612 5.438-5.814 7.71-12.225 12.624-31.897 15.845-47.811 6.656l-8.221-4.747c-18.778-10.842-25.211-34.85-14.371-53.624l10.873-18.833c4.105-7.109 10.1-12.449 16.982-15.752 11.291-5.419 24.978-5.35 36.644 1.385l8.221 4.747c18.778 10.842 25.211 34.85 14.371 53.624z" fill="#dd5e26"/><path d="m416.987 121.903-8.221-4.747c-11.666-6.735-25.353-6.804-36.644-1.385-6.882 3.302-12.877 8.642-16.982 15.752l-10.873 18.833c-10.84 18.775-4.407 42.783 14.371 53.624l8.221 4.747c15.914 9.188 35.586 5.967 47.811-6.656 2.202-2.272 4.161-4.846 5.814-7.71l10.873-18.833c10.841-18.775 4.408-42.783-14.37-53.625zm.479 69.555c-1.501 2.599-3.278 4.936-5.277 6.997-11.096 11.458-28.951 14.381-43.395 6.042l-7.462-4.308c-17.043-9.84-22.882-31.63-13.043-48.671l9.869-17.093c3.725-6.453 9.167-11.299 15.413-14.297 10.248-4.918 22.671-4.856 33.259 1.257l7.462 4.308c17.043 9.84 22.882 31.63 13.043 48.671z" fill="#ea792e"/></g></g><g><path d="m402.122 184.613c.559 6.767-4.592 12.69-11.432 13.003-.118.009-.233.014-.352.017-6.076.115-11.36-4.453-12.13-10.483-.656-5.096 1.958-9.79 6.143-12.091 1.14-.63 1.815-1.86 1.79-3.162l-.049-2.624c-.043-2.447-1.37-4.69-3.49-5.914l-1.64-.947c-1.223-.706-2.73-.6-3.893.21-3.706 2.587-8.728 2.964-12.901.554-5.979-3.452-7.874-11.261-3.986-17.101 1.172-1.756 2.749-3.115 4.538-4.018 3.37-1.703 7.48-1.803 11.001.03 4.509 2.343 6.871 7.085 6.439 11.782-.125 1.384.571 2.711 1.77 3.404l2.656 1.534c1.226.708 2.625 1.02 4.016.913.554-.038 1.111-.145 1.649-.325l3.457-1.137c1.274-.419 2.191-1.52 2.411-2.839.621-3.714 2.976-7.005 6.42-8.747.73-.37 1.51-.677 2.336-.895 6.668-1.787 13.529 2.395 14.909 9.272 1.196 5.965-2.365 11.983-8.169 13.813-1.013.32-2.034.497-3.042.543-3.753.189-7.329-1.406-9.716-4.184-.962-1.123-2.478-1.594-3.884-1.133l-.117.035c-.765.254-1.467.63-2.079 1.105-1.719 1.322-2.762 3.403-2.721 5.66l.005.187c.026 1.441.903 2.755 2.251 3.252 4.241 1.572 7.411 5.482 7.81 10.286z" fill="#dd5e26"/><path d="m396.855 164.12.117-.035c1.406-.461 2.922.011 3.884 1.133 2.387 2.778 5.963 4.373 9.716 4.184 2.016-1.013 3.768-2.613 4.98-4.714 3.321-5.753 1.348-13.106-4.401-16.426-2.081-1.202-4.372-1.712-6.612-1.595-3.444 1.742-5.798 5.033-6.42 8.747-.22 1.319-1.137 2.42-2.411 2.839l-3.457 1.137c-.538.18-1.096.287-1.649.325l-2.883.772c-1.68.45-3.471.215-4.977-.655l-3.415-1.972c-1.269-.732-1.987-2.108-1.961-3.57.086-4.575-2.447-9.048-6.994-11.157-1.807-.844-3.752-1.185-5.651-1.081-1.789.904-3.366 2.263-4.538 4.018-3.888 5.84-1.993 13.649 3.986 17.101 4.174 2.41 9.195 2.033 12.901-.554 1.163-.811 2.67-.916 3.893-.21l1.64.947c2.119 1.224 3.446 3.467 3.49 5.914l.049 2.624c.025 1.302-.65 2.533-1.79 3.162-4.185 2.301-6.798 6.995-6.143 12.091.784 6.139 6.246 10.763 12.46 10.473.007-.002.015-.004.022-.006 1.825-.904 3.436-2.278 4.62-4.063 3.87-5.835 1.972-13.63-3.999-17.078l-.035-.02c-1.252-.717-2.05-2.017-2.047-3.456.003-3.385 2.08-6.422 5.233-7.652l.313-.122c.611-.471 1.314-.847 2.079-1.101z" fill="#ea792e"/></g></g><g><g><g><path d="m34.492 185.142-13.248 22.945c-7.638 13.229-7.716 28.749-1.571 41.553 3.745 7.804 9.8 14.603 17.862 19.257l21.356 12.33c21.29 12.292 48.515 4.998 60.809-16.296l13.248-22.945z" fill="#f39e22"/><g><path d="m36.478 248.683h46.938v12.112h-46.938z" fill="#ea792e" transform="matrix(.5 -.866 .866 .5 -190.636 179.284)"/><path d="m33.292 250.523h46.938v4.754h-46.938z" fill="#dd5e26" transform="matrix(.5 -.866 .866 .5 -190.636 175.605)"/></g><g><path d="m83.513 241.245 10.486 6.054-22.435 38.858c-2.431-.532-4.837-1.28-7.198-2.249-1.457-.591-2.896-1.268-4.311-2.035z" fill="#ea792e"/><path d="m83.513 241.245 4.114 2.375-23.261 40.288c-1.457-.591-2.896-1.268-4.311-2.035z" fill="#dd5e26"/></g><g><path d="m106.29 241.223 10.489 6.056-21.765 37.697c-3.133 1.029-6.376 1.708-9.667 2.02-1.852.18-3.721.24-5.591.182z" fill="#ea792e"/><path d="m106.29 241.223 4.114 2.375-25.056 43.398c-1.852.18-3.721.24-5.591.182z" fill="#dd5e26"/></g><g><path d="m127.168 244.495 3.249 1.876-10.716 18.561c-3.187 5.521-7.373 10.097-12.205 13.637z" fill="#ea792e"/><path d="m127.168 244.495 3.249 1.876-10.716 18.561c-3.187 5.521-7.373 10.097-12.205 13.637z" fill="#dd5e26"/></g><g><path d="m49.365 221.53 10.486 6.054-23.46 40.632c-2.139-1.321-4.124-2.79-5.957-4.397-.398-.348-.79-.701-1.173-1.068l-2.332-2.363z" fill="#ea792e"/><path d="m49.365 221.53 4.114 2.375-23.045 39.914c-.398-.348-.79-.701-1.173-1.068l-2.332-2.363z" fill="#dd5e26"/></g><g><path d="m38.208 201.42 10.489 6.056-26.749 46.33c-.837-1.35-1.595-2.742-2.276-4.166-.596-1.248-1.136-2.522-1.616-3.816-.766-2.063-1.377-4.182-1.827-6.336z" fill="#ea792e"/><path d="m38.208 201.42 4.114 2.375-24.266 42.029c-.766-2.063-1.377-4.182-1.827-6.336z" fill="#dd5e26"/></g><g><path d="m34.53 188.725 1.669.963-20.662 35.786c.648-5.951 2.52-11.868 5.707-17.388l5.382-9.321c2.197-3.804 4.872-7.163 7.904-10.04z" fill="#ea792e"/></g></g><path d="m96.61 166.579 21.356 12.33c3.247 1.875 6.167 4.096 8.743 6.593 14.315 13.863 17.968 36.171 7.548 54.217l-5.383 9.323c-12.294 21.294-39.519 28.588-60.809 16.296l-21.356-12.33c-8.062-4.655-14.117-11.453-17.862-19.257-6.145-12.804-6.067-28.325 1.571-41.553l5.383-9.323c12.294-21.294 39.519-28.589 60.809-16.296z" fill="#f9c744"/><path d="m96.61 166.579 21.356 12.33c3.247 1.875 6.167 4.096 8.743 6.593-1.343 6.812-3.786 13.455-7.398 19.712-17.264 29.902-55.495 41.086-90.464 28.537-6.145-12.804-6.067-28.325 1.571-41.553l5.383-9.323c12.294-21.294 39.519-28.589 60.809-16.296z" fill="#fad98f"/><path d="m60.763 182.818c.125 3.161 2.788 5.622 5.949 5.497l18.809-.743c3.161-.125 5.622-2.788 5.497-5.949-.125-3.161-2.788-5.622-5.949-5.497l-18.809.743c-3.161.125-5.622 2.788-5.497 5.949z" fill="#faefdc"/><g><path d="m39.873 185.769-4.912 8.507c-6.969 12.071-7.041 26.234-1.434 37.918 3.417 7.122 8.943 13.325 16.299 17.572l19.488 11.251c19.428 11.217 44.27 4.56 55.489-14.87l4.912-8.507c9.508-16.468 6.175-36.823-6.888-49.474-2.351-2.279-5.015-4.306-7.978-6.016l-19.488-11.251c-19.427-11.217-44.27-4.56-55.488 14.87zm73.76-2.354c2.852 1.647 5.417 3.598 7.679 5.791 12.574 12.177 15.782 31.771 6.63 47.623l-4.728 8.189c-10.799 18.704-34.712 25.111-53.413 14.314l-18.759-10.831c-7.081-4.088-12.4-10.06-15.689-16.915-5.397-11.247-5.329-24.879 1.38-36.499l4.728-8.189c10.799-18.704 34.712-25.111 53.413-14.314z" fill="#dd5e26"/><path d="m41.461 186.899-4.728 8.189c-6.709 11.62-6.777 25.253-1.38 36.499 3.289 6.855 8.608 12.826 15.689 16.915l18.759 10.831c18.701 10.797 42.614 4.39 53.413-14.314l4.728-8.189c9.152-15.852 5.944-35.446-6.63-47.623-2.263-2.193-4.827-4.145-7.679-5.791l-18.759-10.831c-18.701-10.797-42.614-4.39-53.413 14.314zm69.281-.478c2.589 1.495 4.916 3.266 6.97 5.256 11.412 11.052 14.324 28.836 6.018 43.224l-4.291 7.433c-9.801 16.976-31.506 22.791-48.479 12.992l-17.026-9.83c-6.427-3.711-11.255-9.13-14.24-15.352-4.899-10.208-4.836-22.581 1.253-33.128l4.291-7.433c9.801-16.976 31.505-22.791 48.479-12.992z" fill="#ea792e"/></g></g><g><path d="m112.213 204.899 3.789 2.187c2.011 1.161 2.698 3.736 1.537 5.748l-16.88 29.237c-1.438 2.49-4.769 3.093-6.988 1.263l-8.763-7.228-1.836 10.422c-.308 1.744-1.973 2.911-3.723 2.605l-3.278-.579c-.205-.038-.401-.09-.589-.164-1.407-.535-2.284-2.013-2.016-3.559l2.083-11.799.714-4.051-22.04-18.174-.627-.518c-1.605-1.324-2.018-3.615-.979-5.415l4.355-7.543c1.318-2.283 4.367-2.832 6.4-1.16l16.305 13.449 1.679-9.531c.308-1.744 1.973-2.911 3.721-2.601l3.28.576c1.744.308 2.911 1.973 2.605 3.723l-.421 2.393-2.219 12.565 2.306 1.905 2.534 2.087c1.793 1.478 4.479.991 5.638-1.016l7.667-13.279c1.161-2.011 3.735-2.704 5.746-1.543z" fill="#dd5e26"/><path d="m108.062 212.394-7.667 13.279c-1.159 2.008-3.845 2.494-5.638 1.016l-4.185-3.452-2.964-2.444.715-4.047 2.219-12.565c-.189-.074-.385-.127-.589-.164l-3.28-.576c-1.748-.31-3.413.857-3.721 2.601l-1.679 9.531-16.305-13.449c-2.033-1.672-5.082-1.123-6.4 1.16l-4.344 7.524 22.04 18.174 2.309 1.904-.715 4.048-2.375 13.456c.189.074.385.127.589.164l3.278.579c1.75.306 3.415-.861 3.723-2.605l1.836-10.422 8.763 7.228c2.219 1.83 5.55 1.227 6.988-1.263l16.806-29.109-3.656-2.111c-2.013-1.161-4.587-.468-5.748 1.543z" fill="#ea792e"/></g></g><g><g><g><path d="m489.447 205.824-13.247-22.946c-7.638-13.229-21.04-21.057-35.201-22.137-8.631-.659-17.546 1.186-25.608 5.84l-21.357 12.33c-21.291 12.292-28.586 39.516-16.292 60.81l13.247 22.946z" fill="#f39e22"/><g><path d="m410.39 169.601h12.112v46.938h-12.112z" fill="#ea792e" transform="matrix(.866 -.5 .5 .866 -40.742 234.086)"/><path d="m417.255 167.762h4.754v46.938h-4.754z" fill="#dd5e26" transform="matrix(.866 -.5 .5 .866 -39.396 235.433)"/></g><g><path d="m416.35 220.226-10.486 6.054-22.435-38.858c1.676-1.84 3.527-3.549 5.546-5.109 1.241-.966 2.546-1.874 3.917-2.716z" fill="#ea792e"/><path d="m416.35 220.226-4.114 2.375-23.26-40.289c1.241-.966 2.546-1.874 3.917-2.716z" fill="#dd5e26"/></g><g><path d="m404.981 239.962-10.489 6.056-21.764-37.697c.675-3.228 1.709-6.376 3.084-9.382.77-1.694 1.653-3.343 2.637-4.933z" fill="#ea792e"/><path d="m404.981 239.962-4.114 2.375-25.055-43.398c.77-1.694 1.653-3.343 2.637-4.933z" fill="#dd5e26"/></g><g><path d="m391.708 256.407-3.249 1.876-10.716-18.561c-3.187-5.521-5.057-11.434-5.707-17.388z" fill="#ea792e"/><path d="m391.708 256.407-3.249 1.876-10.716-18.561c-3.187-5.521-5.057-11.434-5.707-17.388z" fill="#dd5e26"/></g><g><path d="m450.498 200.51-10.486 6.054-23.459-40.633c2.214-1.192 4.478-2.177 6.787-2.96.501-.171 1.002-.333 1.511-.482l3.213-.838z" fill="#ea792e"/><path d="m450.498 200.51-4.114 2.375-23.044-39.914c.501-.171 1.002-.333 1.511-.482l3.213-.838z" fill="#dd5e26"/></g><g><path d="m473.492 200.903-10.489 6.056-26.748-46.33c1.588-.049 3.172-.011 4.746.112 1.379.108 2.753.277 4.113.509 2.17.368 4.311.899 6.401 1.586z" fill="#ea792e"/><path d="m473.492 200.903-4.114 2.375-24.265-42.029c2.17.368 4.311.899 6.401 1.586z" fill="#dd5e26"/></g><g><path d="m486.325 204.065-1.669.963-20.661-35.786c4.83 3.537 9.018 8.116 12.205 13.637l5.382 9.321c2.196 3.804 3.768 7.801 4.743 11.865z" fill="#ea792e"/></g></g><path d="m474.464 268.901-21.357 12.33c-3.247 1.875-6.631 3.292-10.081 4.275-19.164 5.465-40.309-2.525-50.728-20.572l-5.383-9.323c-12.294-21.294-4.999-48.518 16.292-60.81l21.357-12.33c8.062-4.654 16.977-6.5 25.608-5.84 14.161 1.08 27.563 8.908 35.201 22.137l5.383 9.323c12.294 21.294 4.999 48.518-16.292 60.81z" fill="#f9c744"/><path d="m474.464 268.901-21.357 12.33c-3.247 1.875-6.631 3.292-10.081 4.275-5.228-4.569-9.759-10.006-13.372-16.263-17.264-29.902-7.835-68.603 20.518-92.612 14.161 1.08 27.563 8.908 35.201 22.137l5.383 9.323c12.294 21.294 4.999 48.518-16.292 60.81z" fill="#fad98f"/><path d="m478.324 229.737c-2.8-1.472-6.263-.396-7.735 2.404l-8.761 16.661c-1.472 2.8-.396 6.263 2.404 7.735 2.8 1.472 6.263.396 7.735-2.404l8.761-16.661c1.472-2.799.396-6.262-2.404-7.735z" fill="#faefdc"/><g><g fill="#dd5e26"><path d="m486.214 210.17-4.912-8.507c-6.969-12.071-19.199-19.215-32.121-20.201-7.876-.601-16.011 1.082-23.368 5.329l-19.488 11.251c-19.428 11.216-26.085 36.059-14.866 55.49l4.912 8.507c9.508 16.468 28.802 23.759 46.289 18.772 3.149-.896 6.236-2.19 9.199-3.901l19.488-11.251c19.428-11.216 26.085-36.058 14.867-55.489zm-34.842 65.055c-2.852 1.647-5.824 2.892-8.855 3.755-16.833 4.801-35.406-2.218-44.557-18.07l-4.728-8.189c-10.798-18.704-4.391-42.617 14.31-53.414l18.759-10.83c7.081-4.088 14.912-5.709 22.493-5.13 12.439.949 24.211 7.825 30.919 19.445l4.728 8.189c10.799 18.704 4.391 42.617-14.31 53.414z"/><path d="m471.123 247.152c2.095-1.209 3.242-3.579 2.885-5.975s-2.141-4.331-4.5-4.876l-5.607-1.304-21.7-5.049-.052-.011 8.171-26.872c.707-2.315-.077-4.828-1.973-6.335-1.517-1.204-3.5-1.571-5.304-1.047-.452.129-.894.316-1.313.558l-33.3 19.226-3.683-6.379c-.344-.596-.779-1.105-1.274-1.528-3.081 2.982-5.543 6.454-7.332 10.217l5.021 8.697c.313.541.699 1.013 1.138 1.413 1.847 1.681 4.641 2.061 6.919.746l25.467-14.703-5.657 18.61c-.238.782-.309 1.595-.22 2.388.092.796.345 1.572.752 2.277.816 1.413 2.182 2.427 3.776 2.797l13.338 3.102 5.607 1.304-25.467 14.703c-2.82 1.628-3.787 5.238-2.159 8.058l5.017 8.69c4.15.332 8.384-.056 12.503-1.231.005-.001.01-.003.015-.005-.119-.639-.343-1.27-.687-1.865l-3.683-6.379z"/></g><path d="m484.441 210.981-4.728-8.189c-6.709-11.62-18.481-18.496-30.919-19.445-7.581-.579-15.412 1.042-22.493 5.13l-18.759 10.83c-5.834 3.368-10.471 8.013-13.763 13.377v.001c-7.261 11.832-7.977 27.167-.547 40.036l4.728 8.189c9.152 15.852 27.725 22.87 44.557 18.07 3.031-.863 6.003-2.108 8.855-3.755l18.759-10.83c18.701-10.797 25.109-34.71 14.31-53.414zm-82.706 47.245-4.291-7.433c-6.067-10.509-6.148-22.83-1.303-33.017l5.021 8.697c.313.541.699 1.013 1.138 1.413.449-.127.89-.314 1.312-.558l32.749-18.907-1.674 5.507-5.657 18.61c-.238.782-.309 1.595-.22 2.388.092.796.345 1.572.752 2.277.816 1.413 2.182 2.427 3.776 2.797l13.338 3.102 5.607 1.304-25.467 14.703c-2.82 1.628-3.787 5.238-2.159 8.058l5.017 8.69c-11.243-.898-21.872-7.123-27.939-17.631zm48.479 12.993c-2.589 1.495-5.286 2.625-8.037 3.408-1.304.372-2.619.659-3.94.877l-6.021-10.429 33.297-19.224c2.098-1.211 3.245-3.581 2.888-5.977s-2.142-4.331-4.5-4.876l-21.7-5.049-.052-.011-5.607-1.304 8.171-26.872c.667-2.188.005-4.553-1.67-6.078-.452.129-.894.316-1.313.558l-36.941 21.328-4.059-7.03c2.637-3.217 5.887-6.022 9.702-8.225l17.026-9.83c6.427-3.711 13.535-5.182 20.416-4.656 11.289.861 21.974 7.102 28.063 17.649l4.291 7.433c9.801 16.976 3.985 38.68-12.988 48.48z" fill="#ea792e"/></g></g></g></g><g><path d="m421.28 327.35c-.28.33-.59.66-.93 1l-.36.36c-9.61 9.64-17.94 18.9-25.42 27.75-54.08 63.93-64.04 105.93-195.83 105.93-41.22 0-64.26 2.6-79.25 10.21h-.01c-4.66-2.95-9.22-6.04-13.66-9.26-20.22-14.67-38.21-32.23-53.36-52.07-4.68-6.11-9.07-12.43-13.18-18.96l17.58-17.58c89.96-89.96 119.82-71.37 135.98-71.37 8.4 0 21.07-7.72 31.29-15.14 9.44-6.83 16.79-13.41 16.79-13.41 5.11-5.11 9.85-7.83 14-8.74 11.29-2.46 18.31 8.44 17.07 20.93-.65 6.53-3.54 13.49-9.27 19.22-8.07 8.07-68.27 43.72-68.27 43.72s22.45 0 45.73 0h44.51c32.96 0 61.07-73.48 92.42-73.48 16.39 0 24.21 4.13 27.94 8.08 3.41 3.61 3.41 7.05 3.41 7.05l-3.61 4.33-.01.01-.1.13-12.23 14.68h.07.02c.07.01.18.02.33.02h.01.01c2.69.18 17.04 1.29 25.13 5.21 5.14 2.49 7.75 6.13 3.2 11.38z" fill="#c17e62"/><path d="m417.1 325.49c-.62-.26-1.24-.51-1.85-.75h-.01c-.01 0-.01-.01-.02-.01-.02-.01-.03-.02-.05-.02-1.04-.41-2.05-.79-3.02-1.15h-.01c-.12-.05-.25-.09-.37-.14 0 0-.01-.01-.02-.01-2.92-1.05-5.42-1.86-7.02-2.4-8.09-2.75-18.74-1.61-18.74-1.61l6.63-8.25.02-.03.29-.36 10.9-13.56.1-.13.26-.33.11-.14.44-.54c-.84-.66-1.88-1.52-3.11-2.33-.01-.01-.02-.01-.03-.02s-.02-.01-.03-.02c-.86-.56-1.81-1.1-2.86-1.53-1.51-.64-3.23-1.07-5.15-1.07-31.35 0-64.73 79.82-97.69 79.82-21.86 0-90.24 0-90.24 0s17.27-10.23 34.55-20.97c-23.28 0-45.73 0-45.73 0s60.2-35.65 68.27-43.72c5.73-5.73 8.62-12.69 9.27-19.22-5.3-1.2-12.16 1.05-19.89 8.78 0 0-31.92 28.55-48.08 28.55-16.17 0-46.02-18.59-135.98 71.36l-15.58 15.58c15.15 19.84 33.14 37.4 53.36 52.07 4.44 3.22 9 6.31 13.66 9.26h.01c14.99-7.61 38.03-10.21 79.25-10.21 131.79 0 141.75-42 195.83-105.93 7.48-8.85 15.81-18.11 25.42-27.75l.36-.36c.34-.34.65-.67.93-1-1.39-.66-2.79-1.28-4.18-1.86z" fill="#a26d5a"/><path d="m418.08 315.97c-1.21 1.5-2.47 3.09-3.76 4.77-.72.93-1.44 1.86-2.15 2.78v.01c-.01.01-.02.02-.02.03h-.01c-7.78 10.06-15.16 19.36-22.15 27.92-73.45 89.89-106.44 100.31-166.75 100.31-65.2 0-98.08 2.32-117.42 11.55 4.44 3.22 9 6.31 13.66 9.26h.01c14.99-7.61 38.03-10.21 79.25-10.21 131.79 0 141.75-42 195.83-105.93 7.48-8.85 15.81-18.11 25.42-27.75l.36-.36c.34-.34.65-.67.93-1 4.55-5.25 1.94-8.89-3.2-11.38z" fill="#9175a7"/><path d="m408.46 291.59-3.6 4.34-.01.01-.55.66-.11.14-11.61 14-11.64 14.04-37.43 45.15c-17.09 17.1-34.23 36.64-61.21 36.64 0 0 44.64-20.24 63.78-47.53 7.63-10.88 19.1-25.59 30.14-39.34 0-.01 0-.01.01-.02l.59-.73c7.74-9.63 15.22-18.74 20.96-25.67l.55-.67h.01c.12-.15.24-.3.37-.45 2.54-3.07 4.7-5.66 6.34-7.62 3.41 3.61 3.41 7.05 3.41 7.05z" fill="#9175a7"/><path d="m253.52 283.69-7.33 7.33c-5.32 5.32-13.95 5.32-19.27 0l-2.51-2.51c-.09-.09-.19-.19-.28-.29 9.44-6.83 16.79-13.41 16.79-13.41 5.11-5.11 9.85-7.83 14-8.74 3.87 5.32 3.4 12.82-1.4 17.62z" fill="#eea47d"/><path d="m405.279 296.326c-5.32-5.32-13.945-5.32-19.265 0l-7.329 7.329c-5.32 5.32-6.567 14.772 2.276 21.135z" fill="#d48d77"/><path d="m404.862 295.949c-1.895-1.746-4.157-2.868-6.529-3.343l-22.098 27.075c1.126 2.077 2.178 3.553 4.727 5.109z" fill="#c2aacf"/><path d="m419.99 328.71c-9.61 9.64-17.94 18.9-25.42 27.75-.1-.1-.2-.19-.3-.29l-2.51-2.51c-.18-.18-.36-.37-.52-.56-.3-.33-.58-.67-.84-1.02-.14-.2-.28-.4-.41-.6-3.46-5.28-2.87-12.45 1.77-17.09l7.33-7.33c3.44-3.44 8.25-4.65 12.66-3.65.01 0 .02.01.02.01.13.03.27.06.4.1 1.05.27 2.08.67 3.05 1.21.01 0 .01.01.02.01.01-.01.01-.01.01 0 .07.03.13.07.19.11.46.25.9.54 1.33.85.1.08.19.15.29.22.16.13.32.25.47.38.1.09.21.18.31.28.17.15.34.31.51.48z" fill="#d48d77"/><path d="m419.99 328.71c-9.61 9.64-17.94 18.9-25.42 27.75-.1-.1-.2-.19-.3-.29l-2.51-2.51c-.18-.18-.36-.37-.52-.56-.3-.33-.58-.67-.84-1.02-.14-.2-.28-.4-.41-.6 6.99-8.56 14.37-17.86 22.15-27.92h.01c0-.01.01-.02.02-.03 1.03.27 2.04.66 3 1.18.02 0 .03.01.05.02.01 0 .01.01.02.01.07.04.14.07.2.11.46.26.9.54 1.33.85.1.08.19.15.29.22.16.13.32.25.47.38.1.09.21.18.31.28.17.15.34.31.51.48z" fill="#c2aacf"/></g></g></svg>