<svg id="flat" height="512" viewBox="0 0 512 512" width="512" xmlns="http://www.w3.org/2000/svg"><path d="m392 160v312a16 16 0 0 1 -16 16h-336a16 16 0 0 1 -16-16v-312z" fill="#5771e5"/><path d="m176 392h64v64h-64z" fill="#e6b47c"/><path d="m304 296a28.00959 28.00959 0 0 1 -3.17 29.96973l-.84 1.04a66.54827 66.54827 0 0 1 -51.99 24.99027h-72a34.14454 34.14454 0 0 1 -26.24-12.29l-18.31-21.96973a27.36091 27.36091 0 0 1 -3.45-29.74027 40.025 40.025 0 0 1 1.71-46.77l9.45-12.1499a96.051 96.051 0 0 1 160.14 12.98l9.86 18.08008a30.22016 30.22016 0 0 1 -5.16 35.85982z" fill="#e6b47c"/><path d="m24 160v-40a16 16 0 0 1 16-16h336a16 16 0 0 1 16 16v40z" fill="#6e8beb"/><circle cx="392" cy="120" fill="#f7c04a" r="96"/><path d="m352 96v48l40 24 40-24-.001-48.001-39.999-23.999z" fill="#f5a431"/><path d="m305.53 317.29a27.794 27.794 0 0 1 -4.7 8.67969l-.84 1.04a66.54827 66.54827 0 0 1 -51.99 24.99031h-40v-88h65.63786a7.19635 7.19635 0 0 1 7.0372 8.54337 40.03884 40.03884 0 0 0 24.85494 44.74663z" fill="#db995e"/><g fill="#f0d9b4"><path d="m296 360-12.1 16.93994a91.95933 91.95933 0 0 1 -9.49 11.27 93.26051 93.26051 0 0 1 -142.31-11.27l-12.1-16.93994h56v-56h-8a16 16 0 0 1 0-32h32l16-32 16 24h32v56.73a31.283 31.283 0 0 1 -24 30.41992v8.85008z"/><path d="m136 448h144v16h-144z"/><path d="m104 448h16v16h-16z"/><path d="m296 448h16v16h-16z"/></g><circle cx="48" cy="128" fill="#ed6445" r="8"/><circle cx="72" cy="128" fill="#f7c04a" r="8"/><circle cx="96" cy="128" fill="#90d4b1" r="8"/><path d="m296 360-12.1 16.93994a91.95933 91.95933 0 0 1 -9.49 11.27h-38.2a36.20772 36.20772 0 0 1 -36.21-36.20994v-24l6.72 10.08008a31.30544 31.30544 0 0 0 33.28 13.06982v8.8501z" fill="#e6b47c"/></svg>