<svg xmlns="http://www.w3.org/2000/svg" viewBox="0 0 252.39 34.46"><defs><style>.cls-1{fill:#fff;}.cls-2,.cls-6{fill:#8b67ff;}.cls-3,.cls-5{fill:#ff6775;}.cls-4,.cls-7{fill:#ffed69;}.cls-4,.cls-5,.cls-6{stroke:#1d1d1b;stroke-miterlimit:10;stroke-width:0.01px;}</style></defs><title>Recurso 4</title><g id="Capa_2" data-name="Capa 2"><g id="Capa_2-2" data-name="Capa 2"><polyline class="cls-1" points="0 34.44 0 0 6.36 0 25.01 24.02 25.01 0 31.15 0 31.15 34.44 24.46 34.44 6.47 10.42 6.69 34.44 0.55 34.44"/></g><g id="Capa_3" data-name="Capa 3"><polygon class="cls-1" points="33.16 0 33.16 34.44 39.45 34.44 39.45 19.85 52.32 19.85 52.32 13.86 39.37 13.71 39.37 5.89 52.32 5.89 57.22 0 33.16 0"/></g><g id="Capa_4" data-name="Capa 4"><polygon class="cls-2" points="52.1 5.93 64.08 5.93 64.03 34.31 70.11 34.44 70.11 6.13 93.95 5.98 92.82 0 57.09 0 52.1 5.93"/></g><g id="Capa_5" data-name="Capa 5"><polygon class="cls-3" points="82.04 6.03 68.47 0 88.18 0 114.72 0 114.66 6.03 104.03 6.03 103.48 34.44 98.05 34.44 98 5.98 82.04 6.03"/></g><g id="Capa_6" data-name="Capa 6"><polygon class="cls-1" points="114.33 34.44 114.72 0 141.76 0 141.76 8.06 133.31 19.14 145.32 34.44 137.15 34.44 125.14 18.92 135.23 6.03 120.97 6.14 120.7 34.44 114.33 34.44"/></g><g id="Capa_7" data-name="Capa 7"><polygon class="cls-1" points="140.76 34.44 167.11 0 173.18 0 173.18 34.44 167.26 34.44 167.19 9.98 148.25 34.44 140.76 34.44"/></g><g id="Capa_8" data-name="Capa 8"><path class="cls-1" d="M174.51.59a.61.61,0,0,1,.17-.42A.57.57,0,0,1,175.1,0h11a16.58,16.58,0,0,1,6.64,1.33A17.28,17.28,0,0,1,198.14,5a18,18,0,0,1,3.72,5.36,16.32,16.32,0,0,1,1.45,6.58A15.76,15.76,0,0,1,202,23.73a17.72,17.72,0,0,1-9.45,9.35,17.28,17.28,0,0,1-6.87,1.38H175.1a.54.54,0,0,1-.42-.17.57.57,0,0,1-.17-.42Zm6.3,27.62h5.27a10.7,10.7,0,0,0,4.26-.86A11,11,0,0,0,193.83,25a11.28,11.28,0,0,0,2.37-3.5,11,11,0,0,0,0-8.52,11.24,11.24,0,0,0-5.86-5.86,10.7,10.7,0,0,0-4.26-.86h-5.27Z"/></g><g id="Capa_9" data-name="Capa 9"><polygon class="cls-1" points="200.43 0 200.43 34.44 222.8 34.44 222.8 28.48 206.5 28.48 206.5 20.07 219.37 20.07 219.37 13.86 206.65 13.86 206.65 6.03 224.49 6.03 224.49 0 200.43 0"/></g><g id="Capa_10" data-name="Capa 10"><polygon class="cls-1" points="222.05 34.44 222.05 0 249.25 0 249.25 8.15 240.69 19.05 252.39 34.44 244.35 34.44 233.02 19.12 243.33 5.96 228.11 6.03 228.04 34.44 222.05 34.44"/></g><g id="Capa_11" data-name="Capa 11"><path class="cls-4" d="M74.57,25.44S83.71,14.91,94,25C94,25,84.44,10.6,74.57,25.44Z"/><path class="cls-5" d="M78,19.24s6-6.85,12.62-.28C90.57,19,84.38,9.58,78,19.24Z"/><path class="cls-6" d="M80.4,14.56s3.64-4.2,7.72-.18C88.12,14.38,84.33,8.65,80.4,14.56Z"/></g><g id="Capa_12" data-name="Capa 12"><polygon class="cls-7" points="73.32 0 85.57 6.02 90.55 6 78.93 0 73.32 0"/><polygon class="cls-2" points="80.8 0 93.05 5.98 98.03 5.96 86 0 80.8 0"/></g></g></svg>