<svg xmlns="http://www.w3.org/2000/svg" viewBox="0 0 252.39 48.59"><defs><style>.cls-1,.cls-6{fill:#8b67ff;}.cls-2,.cls-5{fill:#ff6775;}.cls-3{font-size:49.23px;font-family:VALORANT-Regular, VALORANT;}.cls-4,.cls-7{fill:#ffed69;}.cls-4,.cls-5,.cls-6{stroke:#1d1d1b;stroke-miterlimit:10;stroke-width:0.01px;}</style></defs><title>Recurso 2</title><g id="Capa_2" data-name="Capa 2"><g id="Capa_2-2" data-name="Capa 2"><polyline points="0 41.82 0 7.38 6.36 7.38 25.01 31.4 25.01 7.38 31.15 7.38 31.15 41.82 24.46 41.82 6.47 17.8 6.69 41.82 0.55 41.82"/></g><g id="Capa_3" data-name="Capa 3"><polygon points="33.16 7.38 33.16 41.82 39.45 41.82 39.45 27.23 52.32 27.23 52.32 21.24 39.37 21.09 39.37 13.27 52.32 13.27 57.22 7.38 33.16 7.38"/></g><g id="Capa_4" data-name="Capa 4"><polygon class="cls-1" points="52.1 13.32 64.08 13.32 64.03 41.7 70.11 41.82 70.11 13.51 93.95 13.36 92.82 7.38 57.09 7.38 52.1 13.32"/></g><g id="Capa_5" data-name="Capa 5"><polygon class="cls-2" points="82.04 13.42 68.47 7.38 88.18 7.38 114.72 7.38 114.66 13.42 104.03 13.42 103.48 41.82 98.05 41.82 98 13.36 82.04 13.42"/></g><g id="Capa_6" data-name="Capa 6"><polygon points="114.33 41.82 114.72 7.38 141.76 7.38 141.76 15.45 133.31 26.52 145.32 41.82 137.15 41.82 125.14 26.3 135.23 13.42 120.97 13.53 120.7 41.82 114.33 41.82"/></g><g id="Capa_7" data-name="Capa 7"><polygon points="140.76 41.82 167.11 7.38 173.18 7.38 173.18 41.82 167.26 41.82 167.19 17.36 148.25 41.82 140.76 41.82"/></g><g id="Capa_8" data-name="Capa 8"><text class="cls-3" transform="translate(170.91 41.85)">d</text></g><g id="Capa_9" data-name="Capa 9"><polygon points="200.43 7.38 200.43 41.82 222.8 41.82 222.8 35.86 206.5 35.86 206.5 27.45 219.37 27.45 219.37 21.24 206.65 21.24 206.65 13.42 224.49 13.42 224.49 7.38 200.43 7.38"/></g><g id="Capa_10" data-name="Capa 10"><polygon points="222.05 41.82 222.05 7.38 249.25 7.38 249.25 15.54 240.69 26.43 252.39 41.82 244.35 41.82 233.02 26.5 243.33 13.34 228.11 13.42 228.04 41.82 222.05 41.82"/></g><g id="Capa_11" data-name="Capa 11"><path class="cls-4" d="M74.57,32.83S83.71,22.3,94,32.39C94,32.39,84.44,18,74.57,32.83Z"/><path class="cls-5" d="M78,26.63s6-6.86,12.62-.29C90.57,26.34,84.38,17,78,26.63Z"/><path class="cls-6" d="M80.4,21.94s3.64-4.19,7.72-.17C88.12,21.77,84.33,16,80.4,21.94Z"/></g><g id="Capa_12" data-name="Capa 12"><polygon class="cls-7" points="73.32 7.38 85.57 13.4 90.55 13.39 78.93 7.38 73.32 7.38"/><polygon class="cls-1" points="80.8 7.38 93.05 13.36 98.03 13.35 86 7.38 80.8 7.38"/></g></g></svg>